PathFileType	4	(X/Y/Z)	 normalP12.trc
DataRate	CameraRate	NumFrames	NumMarkers	Units	OrigDataRate	OrigDataStartFrame	OrigNumFrames
100	100	8	49	M	100	136	232
Frame#	Time	RM1D			RM5D			RM2B			LM1D			LM5D			LM2B			RCAL			LCAL			RLMAL			LLMAL			RSTL			LSTL			RFLE			LFLE			RHFIB			LHFIB			RTTUB			LTTUB			RSSH			LSSH			RTL			LTL			RTAP			RTAD			LTAP			LTAD			RTPP			RTPD			LTPP			LTPD			RPSIS			LPSIS			RASIS			LASIS			T10			T2			IJ			SA			RACR			LACR			RHLE			LHLE			RUSP			LUSP			RCB			LCB			IN			LHME			RHME			
		X1	Y1	Z1	X2	Y2	Z2	X3	Y3	Z3	X4	Y4	Z4	X5	Y5	Z5	X6	Y6	Z6	X7	Y7	Z7	X8	Y8	Z8	X9	Y9	Z9	X10	Y10	Z10	X11	Y11	Z11	X12	Y12	Z12	X13	Y13	Z13	X14	Y14	Z14	X15	Y15	Z15	X16	Y16	Z16	X17	Y17	Z17	X18	Y18	Z18	X19	Y19	Z19	X20	Y20	Z20	X21	Y21	Z21	X22	Y22	Z22	X23	Y23	Z23	X24	Y24	Z24	X25	Y25	Z25	X26	Y26	Z26	X27	Y27	Z27	X28	Y28	Z28	X29	Y29	Z29	X30	Y30	Z30	X31	Y31	Z31	X32	Y32	Z32	X33	Y33	Z33	X34	Y34	Z34	X35	Y35	Z35	X36	Y36	Z36	X37	Y37	Z37	X38	Y38	Z38	X39	Y39	Z39	X40	Y40	Z40	X41	Y41	Z41	X42	Y42	Z42	X43	Y43	Z43	X44	Y44	Z44	X45	Y45	Z45	X46	Y46	Z46	X47	Y47	Z47	X48	Y48	Z48	X49	Y49	Z49	
136	1.3600	0.413465	0.048181	-0.234264	0.364405	0.028351	-0.157438	0.358375	0.067985	-0.207327	-0.232245	0.052591	-0.331762	-0.290210	0.063035	-0.405012	-0.241003	0.092322	-0.374123	0.198022	0.048888	-0.235172	-0.318800	0.222958	-0.324983	0.247595	0.078596	-0.178882	-0.279556	0.197238	-0.390672	0.247394	0.049991	-0.268146	-0.284333	0.177289	-0.303248	0.263825	0.506043	-0.145278	0.044225	0.478182	-0.427136	0.245703	0.451750	-0.131452	-0.009414	0.460633	-0.429847	0.293765	0.441252	-0.201844	0.031014	0.392864	-0.385391	0.282190	0.346735	-0.219364	-0.141867	0.254832	-0.370147	0.220426	0.678087	-0.111427	0.096977	0.641374	-0.439496	0.281983	0.758319	-0.204358	0.297689	0.674001	-0.206833	0.201038	0.676374	-0.373611	0.183236	0.597369	-0.369000	0.090871	0.660264	-0.151360	0.116608	0.585691	-0.167826	-0.019371	0.669961	-0.365265	-0.018735	0.601363	-0.362804	-0.006954	1.004404	-0.216166	-0.009333	1.003041	-0.306762	0.205741	0.961372	-0.168470	0.191835	0.952346	-0.382402	-0.016315	1.203116	-0.282627	-0.027134	1.443805	-0.277476	0.146625	1.436368	-0.262073	0.171270	1.398288	-0.263022	0.043132	1.439105	-0.060968	0.099990	1.464953	-0.470684	0.002117	1.108048	-0.030988	0.119671	1.140398	-0.550277	0.068884	0.860997	0.016879	0.293726	0.939581	-0.540346	0.159632	1.628319	-0.183486	0.160145	1.636273	-0.326354	-0.001639	1.528862	-0.270858	0.081447	1.117216	-0.482656	-0.007594	1.101818	-0.109236	
137	1.3700	0.414075	0.047545	-0.234178	0.364488	0.028328	-0.157458	0.358363	0.067486	-0.207637	-0.218749	0.056582	-0.334940	-0.281955	0.072835	-0.402978	-0.228626	0.098679	-0.375133	0.198285	0.048962	-0.235403	-0.295504	0.234866	-0.323620	0.248237	0.078741	-0.179333	-0.260855	0.205520	-0.389635	0.247830	0.049748	-0.268405	-0.264069	0.187422	-0.301751	0.272322	0.505695	-0.145196	0.068307	0.477980	-0.426747	0.253542	0.451705	-0.131779	0.015009	0.460697	-0.429660	0.300661	0.440689	-0.202885	0.054860	0.393017	-0.384324	0.287634	0.345996	-0.219608	-0.124139	0.257947	-0.369334	0.227156	0.677354	-0.110956	0.116592	0.641765	-0.438853	0.293048	0.756545	-0.201447	0.306987	0.670789	-0.203712	0.219601	0.679215	-0.374023	0.203872	0.599690	-0.369423	0.100539	0.662367	-0.150945	0.127368	0.587409	-0.167516	-0.000495	0.667182	-0.364079	0.002348	0.598639	-0.361923	0.005780	1.006054	-0.213935	0.002900	1.004209	-0.304483	0.218395	0.962721	-0.166761	0.204111	0.953843	-0.380488	-0.003799	1.204636	-0.280311	-0.015171	1.445353	-0.275750	0.158819	1.438069	-0.261259	0.183370	1.400115	-0.262302	0.056080	1.441392	-0.059725	0.110865	1.466167	-0.469668	0.017246	1.110047	-0.028192	0.130012	1.141260	-0.547893	0.087255	0.863823	0.019295	0.301552	0.938297	-0.539509	0.171607	1.629792	-0.182870	0.171853	1.637288	-0.325862	0.010261	1.530356	-0.269454	0.092176	1.118654	-0.479911	0.006924	1.103592	-0.106349	
138	1.3800	0.414574	0.047021	-0.234301	0.364620	0.028376	-0.157534	0.358758	0.067142	-0.207714	-0.203194	0.061786	-0.340164	-0.271283	0.082623	-0.400486	-0.214316	0.106193	-0.376642	0.198451	0.049101	-0.235573	-0.271730	0.244556	-0.321503	0.248758	0.078940	-0.179743	-0.241316	0.214668	-0.387828	0.247934	0.049752	-0.268554	-0.242059	0.195778	-0.299642	0.280100	0.505200	-0.144734	0.092574	0.478372	-0.426445	0.260106	0.451544	-0.131405	0.039320	0.461524	-0.429250	0.307675	0.440270	-0.202533	0.078873	0.393882	-0.382931	0.293755	0.345495	-0.218817	-0.099228	0.262639	-0.368346	0.236611	0.677353	-0.110101	0.135991	0.643201	-0.438309	0.303295	0.753149	-0.197213	0.316664	0.667403	-0.200711	0.237870	0.682474	-0.374044	0.224187	0.602754	-0.368782	0.109898	0.664455	-0.150043	0.136225	0.589057	-0.166527	0.018607	0.665383	-0.362707	0.023794	0.596946	-0.360743	0.018193	1.007674	-0.211858	0.015013	1.005426	-0.302148	0.230870	0.963784	-0.165425	0.216109	0.955452	-0.379057	0.008436	1.206372	-0.278067	-0.003355	1.446994	-0.274064	0.170760	1.439872	-0.260574	0.195374	1.402028	-0.261783	0.069190	1.443643	-0.058455	0.121518	1.467230	-0.468953	0.032406	1.112028	-0.025305	0.140365	1.141939	-0.545721	0.107316	0.866856	0.021283	0.309336	0.936881	-0.538689	0.183554	1.631656	-0.182405	0.183503	1.638672	-0.325415	0.022065	1.532016	-0.268260	0.102785	1.119849	-0.477513	0.021405	1.105269	-0.103325	
139	1.3900	0.414889	0.046709	-0.234334	0.364694	0.028385	-0.157540	0.359028	0.067064	-0.207935	-0.185139	0.066637	-0.343328	-0.254769	0.091626	-0.400162	-0.196018	0.113649	-0.378095	0.198543	0.049213	-0.235621	-0.248841	0.250558	-0.316356	0.248929	0.079098	-0.179939	-0.220867	0.222651	-0.385376	0.248019	0.049763	-0.268569	-0.219859	0.199857	-0.297222	0.287121	0.504773	-0.143794	0.116557	0.479673	-0.426312	0.265605	0.451186	-0.130575	0.063293	0.463193	-0.428555	0.314648	0.439582	-0.200847	0.102620	0.395427	-0.381727	0.299853	0.344836	-0.217556	-0.077696	0.266953	-0.367045	0.245530	0.677304	-0.109421	0.155203	0.645409	-0.437824	0.313829	0.750166	-0.193259	0.326329	0.665754	-0.198955	0.256053	0.686288	-0.373239	0.244246	0.606416	-0.367270	0.119295	0.666064	-0.148861	0.144421	0.590358	-0.165847	0.037950	0.664235	-0.360920	0.045261	0.596254	-0.359142	0.030485	1.009193	-0.209850	0.027009	1.006745	-0.299875	0.243207	0.964796	-0.164319	0.227989	0.957276	-0.378013	0.020507	1.208061	-0.275895	0.008342	1.448735	-0.272408	0.182511	1.441780	-0.260091	0.207109	1.403990	-0.261394	0.082458	1.445845	-0.057147	0.132006	1.468163	-0.468371	0.047659	1.114043	-0.022244	0.150845	1.142533	-0.543575	0.125938	0.869727	0.023655	0.317023	0.935366	-0.537932	0.195446	1.633891	-0.182002	0.195088	1.640530	-0.325048	0.033689	1.534019	-0.267168	0.113364	1.120896	-0.475481	0.035826	1.106839	-0.100114	
140	1.4000	0.415119	0.046522	-0.234283	0.364706	0.028320	-0.157429	0.359209	0.066880	-0.207858	-0.163185	0.071514	-0.345388	-0.231660	0.098941	-0.402606	-0.173468	0.120086	-0.378579	0.198651	0.049306	-0.235441	-0.227536	0.253759	-0.311589	0.249215	0.079226	-0.179935	-0.199980	0.228879	-0.382202	0.248057	0.049839	-0.268440	-0.197039	0.202933	-0.295120	0.293714	0.504237	-0.142749	0.140151	0.481739	-0.426249	0.270312	0.450846	-0.129126	0.087283	0.465753	-0.427759	0.321030	0.438641	-0.198560	0.127185	0.397872	-0.381389	0.305389	0.344195	-0.216103	-0.047168	0.273899	-0.366082	0.254619	0.677152	-0.108769	0.175599	0.648260	-0.437762	0.324865	0.749280	-0.191069	0.335419	0.665728	-0.198668	0.274122	0.690584	-0.371581	0.264087	0.610558	-0.365292	0.128326	0.667527	-0.147963	0.152405	0.591539	-0.165292	0.056942	0.663872	-0.359138	0.066779	0.596285	-0.357499	0.042711	1.010531	-0.207849	0.039017	1.008200	-0.297748	0.255274	0.965821	-0.163380	0.239854	0.959373	-0.377247	0.032503	1.209792	-0.273626	0.019951	1.450583	-0.270747	0.193965	1.443852	-0.259706	0.218659	1.405939	-0.261142	0.095804	1.448035	-0.055868	0.142380	1.469081	-0.467831	0.063094	1.116061	-0.019069	0.161328	1.143178	-0.541654	0.145136	0.872709	0.026001	0.324496	0.933853	-0.537206	0.207178	1.636284	-0.181763	0.206616	1.642565	-0.324773	0.045246	1.536247	-0.266153	0.123850	1.121842	-0.473618	0.050242	1.108355	-0.096671	
141	1.4100	0.415279	0.046332	-0.234313	0.364781	0.028299	-0.157395	0.359382	0.066779	-0.207863	-0.138060	0.075676	-0.347572	-0.204240	0.104963	-0.406024	-0.147998	0.125814	-0.378727	0.198726	0.049477	-0.235298	-0.206537	0.255673	-0.307847	0.249659	0.079322	-0.179856	-0.177389	0.233441	-0.379272	0.248063	0.049936	-0.268317	-0.175507	0.205081	-0.292522	0.299935	0.503616	-0.141685	0.163358	0.484432	-0.426252	0.275591	0.450608	-0.128203	0.110576	0.468953	-0.426749	0.326620	0.437499	-0.196572	0.149884	0.400183	-0.381381	0.310060	0.343473	-0.214942	-0.030868	0.275781	-0.364133	0.263292	0.677092	-0.108129	0.194876	0.651380	-0.437523	0.334938	0.749883	-0.190418	0.344313	0.665992	-0.198226	0.291847	0.695195	-0.369437	0.283650	0.615042	-0.363485	0.136904	0.669226	-0.147351	0.160217	0.592871	-0.164643	0.075715	0.664119	-0.357876	0.088137	0.596657	-0.356126	0.054647	1.011937	-0.206001	0.051032	1.009836	-0.295762	0.267177	0.967072	-0.162374	0.251754	0.961660	-0.376494	0.044285	1.211584	-0.271413	0.031394	1.452430	-0.269116	0.205287	1.445987	-0.259495	0.230099	1.407907	-0.260915	0.109066	1.450309	-0.054666	0.152433	1.469998	-0.467320	0.078674	1.118203	-0.015769	0.171806	1.143949	-0.539802	0.164558	0.875894	0.028303	0.331700	0.932414	-0.536518	0.218798	1.638586	-0.181607	0.217992	1.644561	-0.324644	0.056642	1.538432	-0.265235	0.134150	1.122908	-0.472010	0.064158	1.109910	-0.094189	
142	1.4200	0.415451	0.046189	-0.234335	0.364906	0.028293	-0.157361	0.359564	0.066690	-0.207911	-0.110047	0.079340	-0.350441	-0.174707	0.109662	-0.409121	-0.120717	0.130974	-0.379095	0.198829	0.049684	-0.235138	-0.185529	0.255985	-0.304791	0.250073	0.079395	-0.179750	-0.153791	0.236693	-0.376674	0.248153	0.050028	-0.268214	-0.153319	0.205726	-0.290457	0.305775	0.503058	-0.140672	0.185955	0.487475	-0.426135	0.280864	0.450274	-0.127362	0.133504	0.472389	-0.425576	0.331664	0.436441	-0.195554	0.173419	0.402950	-0.381687	0.313609	0.342863	-0.214415	-0.009742	0.278236	-0.362436	0.272430	0.677461	-0.107188	0.213975	0.654670	-0.437399	0.344410	0.750522	-0.190103	0.353201	0.665800	-0.196718	0.309359	0.700079	-0.367197	0.302983	0.619680	-0.362294	0.145285	0.671033	-0.146989	0.167655	0.594335	-0.164152	0.094116	0.664570	-0.357394	0.109128	0.597660	-0.354830	0.066447	1.013389	-0.204228	0.063017	1.011612	-0.293975	0.279049	0.968611	-0.161166	0.263676	0.964058	-0.375619	0.055901	1.213386	-0.269335	0.042615	1.454213	-0.267507	0.216543	1.447982	-0.259184	0.241393	1.409861	-0.260714	0.122231	1.452714	-0.053563	0.162349	1.471100	-0.466783	0.094431	1.120677	-0.011519	0.182101	1.144927	-0.538097	0.184169	0.879257	0.030498	0.338684	0.931106	-0.535870	0.230327	1.640706	-0.181599	0.229271	1.646374	-0.324637	0.067928	1.540369	-0.264428	0.144284	1.124065	-0.470516	0.078223	1.111662	-0.090871	
143	1.4300	0.415592	0.046123	-0.234326	0.364982	0.028255	-0.157290	0.359747	0.066622	-0.207830	-0.080273	0.082394	-0.353921	-0.145059	0.112854	-0.411421	-0.092743	0.135276	-0.379781	0.198940	0.049876	-0.234867	-0.163707	0.254454	-0.301641	0.250525	0.079425	-0.179572	-0.130207	0.239416	-0.374102	0.248195	0.050165	-0.268036	-0.129410	0.205532	-0.288950	0.311127	0.502518	-0.139574	0.208047	0.490759	-0.425950	0.286282	0.449651	-0.126699	0.156128	0.475538	-0.424416	0.336187	0.435574	-0.195049	0.196761	0.405803	-0.381866	0.316321	0.342344	-0.214376	0.013837	0.280535	-0.361173	0.280874	0.677904	-0.106220	0.232743	0.658035	-0.437285	0.354278	0.750775	-0.188913	0.361881	0.664696	-0.194453	0.326355	0.704965	-0.365235	0.322162	0.624489	-0.361890	0.153653	0.672809	-0.146666	0.174686	0.595807	-0.163805	0.111974	0.665065	-0.357496	0.129806	0.598819	-0.353803	0.078196	1.014817	-0.202550	0.074950	1.013584	-0.292321	0.290879	0.970346	-0.159726	0.275671	0.966481	-0.374499	0.067430	1.215109	-0.267342	0.053750	1.455974	-0.265903	0.227662	1.449883	-0.258770	0.252565	1.411798	-0.260504	0.135177	1.455219	-0.052581	0.172115	1.472264	-0.466165	0.110317	1.123202	-0.008073	0.192203	1.146019	-0.536372	0.203908	0.882891	0.032644	0.345419	0.929994	-0.535280	0.241868	1.642807	-0.181724	0.240412	1.648088	-0.324773	0.079107	1.542170	-0.263654	0.154219	1.125339	-0.468973	0.092494	1.113464	-0.087024	
